<svg width="600" height="400" viewBox="0 0 600 400" fill="none" xmlns="http://www.w3.org/2000/svg">
  <!-- Background -->
  <rect width="600" height="400" rx="20" fill="#E6F0FF" />
  
  <!-- Financial elements -->
  <circle cx="100" cy="100" r="50" fill="#6B9BDC" opacity="0.2" />
  <circle cx="500" cy="300" r="70" fill="#F0A0A0" opacity="0.2" />
  <circle cx="400" cy="80" r="30" fill="#FFD700" opacity="0.2" />
  <circle cx="200" cy="350" r="40" fill="#6B9BDC" opacity="0.2" />
  
  <!-- Person 1 (female) -->
  <circle cx="200" cy="180" r="60" fill="#F0A0A0" />
  <circle cx="200" cy="150" r="25" fill="#FFFFFF" />
  <path d="M200 180C185 180 170 195 170 210V250H230V210C230 195 215 180 200 180Z" fill="#FFFFFF" />
  
  <!-- Person 2 (male) -->
  <circle cx="350" cy="180" r="60" fill="#6B9BDC" />
  <circle cx="350" cy="150" r="25" fill="#FFFFFF" />
  <path d="M350 180C335 180 320 195 320 210V250H380V210C380 195 365 180 350 180Z" fill="#FFFFFF" />
  
  <!-- Heart -->
  <path d="M275 150C265 150 255 160 255 170C255 180 265 190 275 210C285 190 295 180 295 170C295 160 285 150 275 150Z" fill="#F0A0A0" />
  
  <!-- Dollar sign -->
  <circle cx="275" cy="280" r="30" fill="#FFD700" />
  <path d="M275 260V255H270V250H275V245H280V250H285V255H280V260H275ZM275 300C265 300 255 290 255 280C255 270 265 260 275 260C285 260 295 270 295 280C295 290 285 300 275 300ZM275 265C267.5 265 260 272.5 260 280C260 287.5 267.5 295 275 295C282.5 295 290 287.5 290 280C290 272.5 282.5 265 275 265Z" fill="#3A5F8A" />
  
  <!-- Growth chart -->
  <path d="M450 250H550V300H450V250Z" fill="#FFFFFF" stroke="#3A5F8A" stroke-width="2" />
  <path d="M460 290L480 270L500 280L520 260L540 250" stroke="#6B9BDC" stroke-width="3" stroke-linecap="round" />
  <circle cx="480" cy="270" r="5" fill="#6B9BDC" />
  <circle cx="500" cy="280" r="5" fill="#6B9BDC" />
  <circle cx="520" cy="260" r="5" fill="#6B9BDC" />
  
  <!-- House icon -->
  <path d="M100 250H150V300H100V250Z" fill="#FFFFFF" stroke="#3A5F8A" stroke-width="2" />
  <path d="M90 250L125 220L160 250" stroke="#3A5F8A" stroke-width="3" stroke-linecap="round" />
  <path d="M120 300V280H130V300" stroke="#3A5F8A" stroke-width="2" />
</svg> 